# xmcd
#
# Track frame offsets:
#	150
#	19270
#	40935
#	62850
#	79938
#	101065
#	116103
#	134425
#	156305
#	172668
#	193400
#	210885
#	228903
#	251288
#
# Disc length: 3612 seconds
#
# Revision: 1
# Processed by: cddbd v1.5PL3 Copyright (c) Steve Scherf et al.
# Submitted via: CDex 1.50Beta5
#
DISCID=bc0e1a0e
DTITLE=細川たかし - ゴールデンベスト
DYEAR=1999
DGENRE=country
TTITLE0=望郷じょんから
TTITLE1=佐渡の恋唄
TTITLE2=女のしぐれ
TTITLE3=北酒場
TTITLE4=湯けむり情話
TTITLE5=女の十字路
TTITLE6=ゆきずり
TTITLE7=ふたり道
TTITLE8=心のこり
TTITLE9=恋の酒
TTITLE10=矢切の渡し
TTITLE11=浪花節だよ人生は
TTITLE12=双葉山
TTITLE13=北緯五十度
EXTD=
EXTT0=
EXTT1=
EXTT2=
EXTT3=
EXTT4=
EXTT5=
EXTT6=
EXTT7=
EXTT8=
EXTT9=
EXTT10=
EXTT11=
EXTT12=
EXTT13=
PLAYORDER=
